<svg xmlns="http://www.w3.org/2000/svg" xmlns:xlink="http://www.w3.org/1999/xlink" width="300" zoomAndPan="magnify" viewBox="0 0 224.87999 225" height="300" preserveAspectRatio="xMidYMid meet" version="1.0"><defs><clipPath id="6c9b6cc838"><path d="M 0 12.769531 L 224.761719 12.769531 L 224.761719 163 L 0 163 Z M 0 12.769531 " clip-rule="nonzero"/></clipPath><clipPath id="425ef07b84"><path d="M 107 179 L 117 179 L 117 212.164062 L 107 212.164062 Z M 107 179 " clip-rule="nonzero"/></clipPath></defs><g clip-path="url(#6c9b6cc838)"><path fill="#04415f" d="M 0 12.890625 C 0.867188 16.210938 1.554688 19.582031 2.628906 22.832031 C 4.746094 29.230469 6.722656 35.707031 9.417969 41.859375 C 12.203125 48.210938 17.171875 52.757812 23.265625 56.207031 C 45.398438 68.746094 67.453125 81.429688 89.53125 94.0625 C 90.175781 94.433594 90.796875 94.847656 91.34375 95.394531 C 64.96875 83.390625 39.304688 70.039062 14.148438 54.570312 C 14.5 55.503906 14.609375 55.988281 14.84375 56.410156 C 18.867188 63.664062 22.960938 70.875 26.929688 78.160156 C 30.566406 84.832031 36.410156 87.691406 43.675781 88.792969 C 55.855469 90.640625 67.980469 92.84375 80.132812 94.90625 C 83.945312 95.554688 87.757812 96.230469 91.550781 97.042969 C 72.527344 96.25 53.691406 93.832031 34.714844 91.058594 C 35.800781 91.960938 36.894531 92.851562 37.972656 93.769531 C 42.480469 97.613281 47.109375 101.332031 51.449219 105.367188 C 54.921875 108.59375 58.503906 109.175781 62.945312 107.664062 C 72.164062 104.527344 81.488281 101.703125 90.769531 98.753906 C 91.074219 98.65625 91.394531 98.597656 91.753906 98.691406 C 88.292969 100.308594 84.785156 101.847656 81.375 103.5625 C 76.539062 105.992188 72.222656 109.183594 68.5625 113.179688 C 64.78125 117.308594 64.203125 121.820312 67.382812 126.339844 C 71.660156 132.429688 76.3125 138.261719 81.050781 144.167969 C 76.875 126.488281 80.875 111.25 94.292969 98.757812 C 93.9375 99.421875 93.585938 100.097656 93.222656 100.765625 C 88.96875 108.5625 85.292969 116.578125 84.042969 125.492188 C 83.148438 131.816406 84.109375 137.628906 88.996094 142.21875 C 94.230469 147.128906 99.550781 151.957031 104.824219 156.828125 C 106.804688 158.652344 108.757812 160.507812 110.871094 162.289062 C 99.765625 142.554688 94.976562 121.285156 95.550781 98.675781 C 98.304688 107.699219 101.0625 116.71875 103.808594 125.746094 C 106.550781 134.761719 109.273438 143.78125 112.507812 152.792969 C 117.988281 134.753906 123.476562 116.710938 128.960938 98.667969 C 129.546875 121.230469 124.785156 142.464844 113.792969 162.304688 C 114.144531 162.003906 114.503906 161.710938 114.839844 161.394531 C 115.199219 161.0625 115.523438 160.695312 115.886719 160.367188 C 121.359375 155.394531 126.664062 150.222656 132.351562 145.511719 C 140.46875 138.796875 142.261719 130.546875 139.59375 120.734375 C 137.679688 113.6875 134.785156 107.09375 131.28125 100.730469 C 130.980469 100.179688 130.667969 99.640625 130.378906 99.082031 C 130.324219 98.984375 130.382812 98.828125 130.402344 98.429688 C 136.753906 104.367188 141.175781 111.253906 143.433594 119.492188 C 145.679688 127.6875 145.398438 135.871094 143.546875 144.203125 C 146.496094 140.453125 149.46875 136.710938 152.394531 132.933594 C 153.839844 131.0625 155.242188 129.148438 156.605469 127.210938 C 160.28125 122.003906 159.917969 117.339844 155.515625 112.695312 C 150.277344 107.171875 143.808594 103.527344 136.894531 100.582031 C 135.496094 99.988281 134.101562 99.378906 132.820312 98.441406 C 138.269531 100.050781 143.738281 101.589844 149.152344 103.289062 C 153.136719 104.535156 157.128906 105.808594 160.980469 107.410156 C 165.726562 109.375 169.585938 108.648438 173.375 105.089844 C 178.097656 100.660156 183.203125 96.636719 188.144531 92.4375 C 188.664062 91.992188 189.1875 91.539062 189.652344 90.886719 C 170.835938 93.804688 151.996094 96.261719 132.953125 96.929688 C 140.121094 95.636719 147.285156 94.28125 154.46875 93.058594 C 164.007812 91.445312 173.570312 89.960938 183.121094 88.371094 C 188.902344 87.410156 193.695312 84.71875 196.683594 79.554688 C 201.214844 71.710938 205.546875 63.753906 209.960938 55.839844 C 210.082031 55.621094 210.125 55.363281 210.390625 54.558594 C 185.234375 70.019531 159.550781 83.390625 133.035156 95.179688 C 139.945312 91.128906 146.808594 87.003906 153.761719 83.039062 C 169.203125 74.238281 184.601562 65.355469 200.191406 56.828125 C 208.113281 52.496094 213.867188 46.421875 216.90625 38.066406 C 219.894531 29.855469 222.253906 21.414062 224.886719 13.070312 C 224.675781 12.980469 224.46875 12.890625 224.257812 12.796875 C 224.003906 13.035156 223.691406 13.234375 223.496094 13.519531 C 211.617188 30.816406 196.011719 43.96875 178.03125 54.503906 C 166.183594 61.445312 154.410156 68.511719 142.546875 75.421875 C 136.722656 78.816406 133.964844 84.378906 131.570312 90.234375 C 130.675781 92.417969 130.027344 94.703125 129.179688 97.195312 C 126.042969 93.046875 124.433594 88.628906 124.679688 83.53125 C 124.769531 81.59375 125.007812 79.539062 124.503906 77.726562 C 122.839844 71.792969 118.175781 69.191406 112.597656 67.90625 C 109.414062 67.171875 106.40625 67.46875 103.78125 69.796875 C 103.160156 70.34375 101.964844 70.308594 101.023438 70.410156 C 96.960938 70.851562 95.140625 72.785156 95.640625 76.191406 C 101.679688 74.558594 105.859375 77.964844 105.636719 84.34375 C 105.410156 90.765625 100.945312 96.40625 95.347656 97.222656 C 94.53125 94.828125 93.785156 92.386719 92.875 90.003906 C 90.214844 83.03125 86.085938 77.460938 79.316406 73.675781 C 67.085938 66.847656 55.097656 59.585938 43.082031 52.382812 C 26.414062 42.398438 12.222656 29.695312 1.121094 13.660156 C 0.898438 13.339844 0.628906 13.039062 0 12.890625 Z M 107.050781 72.957031 L 107.105469 71.363281 L 111.460938 72.425781 L 111.429688 72.894531 Z M 107.050781 72.957031 " fill-opacity="1" fill-rule="nonzero"/></g><path fill="#04415f" d="M 75.871094 194.144531 C 80.339844 194.144531 84.363281 194.363281 88.347656 194.078125 C 91.570312 193.847656 94.273438 192.117188 96.402344 189.660156 C 101.730469 183.515625 104.859375 176.269531 106.65625 168.441406 C 107.605469 164.292969 104.882812 158.539062 100.410156 154.753906 C 101.164062 156.554688 101.761719 157.976562 102.355469 159.398438 C 104.148438 163.675781 103.855469 167.660156 101.34375 171.707031 C 95.699219 180.796875 87.773438 187.300781 78.664062 192.566406 C 77.851562 193.035156 77.035156 193.488281 75.871094 194.144531 Z M 75.871094 194.144531 " fill-opacity="1" fill-rule="nonzero"/><path fill="#04415f" d="M 148.242188 193.996094 C 146.066406 192.679688 143.847656 191.425781 141.710938 190.039062 C 134.320312 185.242188 128.007812 179.390625 123.253906 171.855469 C 120.621094 167.679688 120.347656 163.570312 122.246094 159.160156 C 122.8125 157.839844 123.382812 156.523438 124.015625 155.046875 C 119.683594 157.875 116.894531 164.554688 118.050781 169.292969 C 119.667969 175.917969 122.382812 182.046875 126.394531 187.601562 C 129.703125 192.183594 134.015625 194.574219 139.742188 194.367188 C 142.550781 194.265625 145.371094 194.347656 148.183594 194.347656 C 148.203125 194.230469 148.222656 194.113281 148.242188 193.996094 Z M 148.242188 193.996094 " fill-opacity="1" fill-rule="nonzero"/><g clip-path="url(#425ef07b84)"><path fill="#04415f" d="M 112.363281 212.203125 C 115.875 207.140625 117.347656 201.816406 116.078125 195.867188 C 114.90625 190.378906 113.738281 184.890625 112.566406 179.398438 C 112.394531 179.375 112.226562 179.355469 112.054688 179.335938 C 111.804688 180.40625 111.539062 181.480469 111.308594 182.554688 C 110.308594 187.167969 109.269531 191.777344 108.324219 196.402344 C 107.226562 201.785156 108.828125 208.039062 112.363281 212.203125 Z M 112.363281 212.203125 " fill-opacity="1" fill-rule="nonzero"/></g><path fill="#04415f" d="M 109.347656 170.59375 C 106.972656 175.90625 104.617188 181.769531 101.769531 187.386719 C 98.898438 193.054688 94.773438 197.875 90.003906 202.296875 C 95.8125 203.441406 102.085938 200.132812 104.734375 194.507812 C 108.394531 186.730469 109.757812 178.492188 109.347656 170.59375 Z M 109.347656 170.59375 " fill-opacity="1" fill-rule="nonzero"/><path fill="#04415f" d="M 115.355469 169.933594 C 114.738281 178.34375 116.125 186.375 119.519531 194.011719 C 122.144531 199.921875 127.703125 203.046875 134.640625 202.453125 C 124.890625 193.390625 118.945312 182.347656 115.355469 169.933594 Z M 115.355469 169.933594 " fill-opacity="1" fill-rule="nonzero"/><path fill="#04415f" d="M 161.128906 165.960938 C 158.949219 164.644531 156.730469 163.386719 154.597656 162.003906 C 147.207031 157.203125 140.890625 151.351562 136.140625 143.816406 C 133.507812 139.640625 133.234375 135.53125 135.128906 131.125 C 135.699219 129.804688 136.265625 128.484375 136.898438 127.011719 C 132.566406 129.839844 129.78125 136.515625 130.9375 141.257812 C 132.554688 147.878906 135.269531 154.011719 139.28125 159.566406 C 142.585938 164.144531 146.902344 166.539062 152.628906 166.328125 C 155.4375 166.226562 158.257812 166.3125 161.070312 166.3125 C 161.09375 166.195312 161.109375 166.078125 161.128906 165.960938 Z M 161.128906 165.960938 " fill-opacity="1" fill-rule="nonzero"/><path fill="#04415f" d="M 128.242188 141.898438 C 127.621094 150.308594 129.011719 158.339844 132.402344 165.976562 C 135.03125 171.886719 140.589844 175.011719 147.527344 174.417969 C 137.777344 165.351562 131.835938 154.3125 128.242188 141.898438 Z M 128.242188 141.898438 " fill-opacity="1" fill-rule="nonzero"/><path fill="#04415f" d="M 65.195312 165.960938 C 67.375 164.644531 69.59375 163.386719 71.730469 162.003906 C 79.117188 157.203125 85.433594 151.351562 90.1875 143.816406 C 92.820312 139.640625 93.089844 135.53125 91.195312 131.125 C 90.628906 129.804688 90.058594 128.484375 89.425781 127.011719 C 93.757812 129.839844 96.546875 136.515625 95.386719 141.257812 C 93.769531 147.878906 91.058594 154.011719 87.046875 159.566406 C 83.738281 164.144531 79.425781 166.539062 73.699219 166.328125 C 70.890625 166.226562 68.070312 166.3125 65.253906 166.3125 C 65.234375 166.195312 65.214844 166.078125 65.195312 165.960938 Z M 65.195312 165.960938 " fill-opacity="1" fill-rule="nonzero"/><path fill="#04415f" d="M 98.089844 141.898438 C 98.707031 150.308594 97.320312 158.339844 93.925781 165.976562 C 91.296875 171.886719 85.738281 175.011719 78.804688 174.417969 C 88.550781 165.351562 94.492188 154.3125 98.089844 141.898438 Z M 98.089844 141.898438 " fill-opacity="1" fill-rule="nonzero"/><path fill="#1e1e1e" d="M 107.105469 72.894531 C 108.546875 72.894531 109.988281 72.894531 111.433594 72.894531 C 111.441406 72.738281 111.457031 72.582031 111.464844 72.425781 C 110.027344 72.308594 108.589844 72.1875 107.148438 72.066406 C 107.136719 72.339844 107.121094 72.617188 107.105469 72.894531 Z M 107.105469 72.894531 " fill-opacity="1" fill-rule="nonzero"/></svg>